<svg width="640" height="480" xmlns="http://www.w3.org/2000/svg">
 <!-- Created with SVG-edit - http://svg-edit.googlecode.com/ -->
 <g>
  <title>Layer 1</title>
  <line id="svg_1" y2="315.33333" x2="108.66667" y1="75.33333" x1="112.66667" stroke-width="5" stroke="#000000" fill="none"/>
  <line id="svg_2" y2="315.33333" x2="226" y1="316" x1="174" stroke-width="5" stroke="#000000" fill="none"/>
  <line id="svg_3" y2="248.66667" x2="316" y1="246.66667" x1="242" stroke-width="5" stroke="#000000" fill="none"/>
  <line id="svg_4" y2="182.66667" x2="350" y1="312" x1="282.66667" stroke-width="5" stroke="#000000" fill="none"/>
  <line id="svg_5" y2="124.66667" x2="338.66667" y1="123.33333" x1="178" stroke-width="5" stroke="#000000" fill="none"/>
  <line id="svg_6" y2="60" x2="340.66667" y1="124.66667" x1="338.66667" stroke-width="5" stroke="#000000" fill="none"/>
  <line id="svg_7" y2="60.66667" x2="177.33333" y1="60" x1="340.66667" stroke-width="5" stroke="#000000" fill="none"/>
  <line id="svg_8" y2="92" x2="282.66667" y1="161.33333" x1="197.33333" stroke-width="5" stroke="#000000" fill="none"/>
  <line id="svg_9" y2="260" x2="192.66667" y1="200" x1="153.33333" stroke-width="5" stroke="#000000" fill="none"/>
  <line id="svg_10" y2="370" x2="158" y1="370.66667" x1="83.33333" stroke-width="5" stroke="#000000" fill="none"/>
  <line id="svg_11" y2="337.33333" x2="465.33333" y1="292" x1="475.33333" stroke-width="5" stroke="#000000" fill="none"/>
  <line id="svg_12" y2="328" x2="382.66667" y1="337.33333" x1="465.33333" stroke-width="5" stroke="#000000" fill="none"/>
  <line id="svg_13" y2="289.33333" x2="380" y1="328" x1="382.66667" stroke-width="5" stroke="#000000" fill="none"/>
  <line id="svg_14" y2="243.33333" x2="412" y1="289.33333" x1="380" stroke-width="5" stroke="#000000" fill="none"/>
  <line id="svg_15" y2="199.33333" x2="407.33333" y1="243.33333" x1="412" stroke-width="5" stroke="#000000" fill="none"/>
  <line id="svg_16" y2="174" x2="534.66667" y1="98" x1="471.33333" stroke-width="5" stroke="#000000" fill="none"/>
  <line id="svg_17" y2="348" x2="317.33333" y1="429.33333" x1="316" stroke-width="5" stroke="#000000" fill="none"/>
  <line id="svg_18" y2="392" x2="540" y1="378" x1="424.66667" stroke-width="5" stroke="#000000" fill="none"/>
  <line id="svg_19" y2="431.33333" x2="451.33333" y1="316" x1="528.66667" stroke-width="5" stroke="#000000" fill="none"/>
  <line id="svg_20" y2="449.33333" x2="508.66667" y1="414.66667" x1="412" stroke-width="5" stroke="#000000" fill="none"/>
  <line id="svg_21" y2="30.66667" x2="560.66667" y1="30" x1="449.33333" stroke-width="5" stroke="#000000" fill="none"/>
  <line id="svg_22" y2="78.66667" x2="620" y1="30.66667" x1="561.33333" stroke-width="5" stroke="#000000" fill="none"/>
  <line id="svg_23" y2="164.66667" x2="620" y1="78.66667" x1="620" stroke-width="5" stroke="#000000" fill="none"/>
  <line id="svg_24" y2="230" x2="568" y1="230.66667" x1="552" stroke-width="5" stroke="#000000" fill="none"/>
  <line id="svg_25" y2="216.66667" x2="587.33333" y1="230" x1="568" stroke-width="5" stroke="#000000" fill="none"/>
  <line id="svg_26" y2="232" x2="609.33333" y1="216" x1="587.33333" stroke-width="5" stroke="#000000" fill="none"/>
  <line id="svg_27" y2="297.33333" x2="610" y1="232" x1="610" stroke-width="5" stroke="#000000" fill="none"/>
  <line id="svg_28" y2="324" x2="584.66667" y1="297.33333" x1="610" stroke-width="5" stroke="#000000" fill="none"/>
  <line id="svg_29" y2="16.66667" x2="47.33333" y1="69.33333" x1="45.33333" stroke-width="5" stroke="#000000" fill="none"/>
  <line id="svg_30" y2="216" x2="428" y1="220" x1="388.66667" stroke-width="5" stroke="#000000" fill="none"/>
 </g>
</svg>