<svg width="640" height="480" xmlns="http://www.w3.org/2000/svg" xmlns:xlink="http://www.w3.org/1999/xlink">
 <!-- Created with SVG-edit - http://svg-edit.googlecode.com/ -->
 <g>
  <title>Layer 1</title>
  <image xlink:href="http://grasshoppermind.files.wordpress.com/2012/04/art-deco-necker-cubes.jpg?w=700&amp;h=" id="svg_1" height="489.00001" width="489.00001" y="2.99999" x="80"/>
  <path id="svg_6" d="m216.5,278.5c0,0 0.5,-61.5 0.5,-61.5c0,0 53.5,-30.5 53.5,-30.5" stroke-linecap="null" stroke-linejoin="null" stroke-dasharray="null" stroke-width="9" stroke="#5d00ff" fill="none"/>
  <path id="svg_8" d="m271,185.5c0,0 53,30.5 53,30.5c0,0 0.5,62 0.5,62" stroke-linecap="null" stroke-linejoin="null" stroke-dasharray="null" stroke-width="9" stroke="#f7f7f7" fill="none"/>
  <path id="svg_42" d="m217,282c0,0 16,-9 16,-9c0,0 36.5,19.75 36.5,19.75c0,0 36.5,-22 36.5,-22c0,0 15,10.25 15,10.25" stroke-linecap="null" stroke-linejoin="null" stroke-dasharray="null" stroke-width="10" stroke="#00cbff" fill="none"/>
  <path id="svg_43" d="m219.25,280.5c0,0 50.75,28.25 50.75,28.25c0,0 50.5,-28.75 50.5,-28.75" stroke-linecap="null" stroke-linejoin="null" stroke-dasharray="null" stroke-width="10" stroke="#00cbff" fill="none"/>
  <path id="svg_44" d="m216.75,275.5c0,0 16.75,-8.25 16.75,-8.25c0,0 0.5,-41.25 0.5,-41.25c0,0 36,-20.75 36,-20.75c0,0 0.25,-19.75 0.25,-19.75" stroke-linecap="null" stroke-linejoin="null" stroke-dasharray="null" stroke-width="9" stroke="#5d00ff" fill="none"/>
  <path id="svg_46" d="m271.5,185.25c0,0 0.75,21.5 0.75,21.5c0,0 33.25,18.75 33.25,18.75c0,0 0.5,42 0.5,42c0,0 17,9.75 17,9.75" stroke-linecap="null" stroke-linejoin="null" stroke-dasharray="null" stroke-width="9" stroke="#f7f7f7" fill="none"/>
  <path id="svg_48" d="m238.25,229.25c0,0 7.5,4.25 7.5,4.25c0,0 0.75,27.5 0.75,27.5c0,0 23.75,14.25 23.75,14.25c0,0 -0.25,11.5 -0.25,11.5c0,0 -32.75,-16.75 -32.75,-16.75c0,0 1,-40.75 1,-40.75z" stroke-linecap="null" stroke-linejoin="null" stroke-dasharray="null" stroke-width="5" stroke="#f7f7f7" fill="none"/>
  <path id="svg_50" d="m239.25,227.5c0,0 8.5,5 8.5,5c0,0 22.5,-13.25 22.5,-13.25c0,0 24.5,14.25 24.5,14.25c0,0 9.25,-5.5 9.25,-5.5c0,0 -33.75,-20.5 -33.75,-20.5c0,0 -31,20 -31,20z" stroke-linecap="null" stroke-linejoin="null" stroke-dasharray="null" stroke-width="5" stroke="#00cbff" fill="none"/>
  <path id="svg_52" d="m272.5,273.25c0,0 -0.25,15.75 -0.25,15.75c0,0 32.25,-19.75 32.25,-19.75c0,0 2.25,-40.75 2.25,-40.75c0,0 -12,6.75 -12,6.75c0,0 0.75,25.5 0.75,25.5c0,0 -23,12.5 -23,12.5z" stroke-linecap="null" stroke-linejoin="null" stroke-dasharray="null" stroke-width="5" stroke="#5d00ff" fill="none"/>
 </g>
</svg>