<svg width="640" height="480" xmlns="http://www.w3.org/2000/svg">
 <!-- Created with SVG-edit - http://svg-edit.googlecode.com/ -->
 <g>
  <title>Layer 1</title>
  <path id="svg_1" d="m79,313l13,-52l16,-43l24,-36l33,-28l42,-20l45,-12l46,-3l50,2l44,19l35,25l27,37l16,44l11,46l6,24" stroke-width="5" stroke="#ff0000" fill="none"/>
  <path id="svg_2" d="m92.99999,310.18274l12.17157,-48.83249l14.98038,-40.38071l22.4706,-33.8071l30.89705,-26.29442l39.32353,-18.78174l42.13235,-11.26903l43.06862,-2.81726l46.81372,1.87817l41.19611,17.84264l32.76959,23.47716l25.27942,34.7462l14.98041,41.31979l10.29901,43.19798l5.61765,22.53806" stroke-width="5" stroke="#ff7f00" fill="none"/>
  <path id="svg_3" d="m98.99999,313.28934l11.69363,-46.98477l14.39215,-38.85278l21.58824,-32.52792l29.68382,-25.2995l37.7794,-18.07106l40.47794,-10.84264l41.37747,-2.71066l44.97546,1.80711l39.57846,17.16751l31.48282,22.58882l24.28677,33.43147l14.39218,39.75635l9.89459,41.56346l5.39706,21.68527" stroke-width="5" stroke="#ffff00" fill="none"/>
  <path id="svg_4" d="m106.99999,321.33502l11.18382,-46.1929l13.7647,-38.19795l20.64706,-31.97971l28.38971,-24.87309l36.13234,-17.76649l38.71323,-10.6599l39.57356,-2.66498l43.01468,1.77666l37.85297,16.87816l30.11026,22.20813l23.22794,32.86801l13.76474,39.0863l9.46323,40.86295l5.16177,21.31979" stroke-width="5" stroke="#00ff00" fill="none"/>
  <path id="svg_5" d="m114.99999,321.47208l10.70589,-43.81726l13.17646,-36.23347l19.76472,-30.33505l27.17647,-23.5939l34.58823,-16.85278l37.05885,-10.11168l37.88235,-2.52792l41.17642,1.68529l36.23535,16.01013l28.82349,21.06601l22.23529,31.17766l13.17651,37.07614l9.05881,38.76141l4.94116,20.22336" stroke-width="5" stroke="#0000ff" fill="none"/>
 </g>
</svg>