<svg width="640" height="480" xmlns="http://www.w3.org/2000/svg">
 <!-- Created with SVG-edit - http://svg-edit.googlecode.com/ -->
 <g>
  <title>Layer 1</title>
  <line id="svg_1" y2="78" x2="49" y1="23" x1="48" stroke-width="5" stroke="#000000" fill="none"/>
  <line id="svg_2" y2="80" x2="161" y1="22" x1="161" stroke-width="5" stroke="#000000" fill="none"/>
  <line id="svg_5" y2="81" x2="379" y1="29" x1="379" stroke-width="5" stroke="#000000" fill="none"/>
  <line id="svg_6" y2="75" x2="483" y1="28" x1="484" stroke-width="5" stroke="#000000" fill="none"/>
  <line id="svg_7" y2="80" x2="586" y1="32" x1="582" stroke-width="5" stroke="#000000" fill="none"/>
  <line id="svg_8" y2="187" x2="115" y1="129" x1="112" stroke-width="5" stroke="#000000" fill="none"/>
  <line id="svg_9" y2="119" x2="276" y1="62" x1="275" stroke-width="5" stroke="#000000" fill="none"/>
  <line id="svg_11" y2="191" x2="456" y1="139" x1="454" stroke-width="5" stroke="#000000" fill="none"/>
  <line id="svg_12" y2="198" x2="586" y1="149" x1="586" stroke-width="5" stroke="#000000" fill="none"/>
  <line id="svg_13" y2="260" x2="36" y1="213" x1="37" stroke-width="5" stroke="#000000" fill="none"/>
  <line id="svg_14" y2="279" x2="184" y1="228" x1="181" stroke-width="5" stroke="#000000" fill="none"/>
  <line id="svg_15" y2="253" x2="318" y1="201" x1="313" stroke-width="5" stroke="#000000" fill="none"/>
  <line id="svg_17" y2="274" x2="519" y1="230" x1="518" stroke-width="5" stroke="#000000" fill="none"/>
  <line id="svg_18" y2="399" x2="85" y1="348" x1="81" stroke-width="5" stroke="#000000" fill="none"/>
  <line id="svg_19" y2="363" x2="284" y1="313" x1="285" stroke-width="5" stroke="#000000" fill="none"/>
  <line id="svg_20" y2="371" x2="441" y1="324" x1="441" stroke-width="5" stroke="#000000" fill="none"/>
  <line id="svg_21" y2="375" x2="578" y1="318" x1="579" stroke-width="5" stroke="#000000" fill="none"/>
  <line id="svg_22" y2="453" x2="229" y1="449" x1="184" stroke-width="5" stroke="#000000" fill="none"/>
  <line id="svg_23" y2="448" x2="466" y1="450" x1="436" stroke-width="5" stroke="#000000" fill="none"/>
 </g>
</svg>