<svg width="640" height="480" xmlns="http://www.w3.org/2000/svg">
 <!-- Created with SVG-edit - http://svg-edit.googlecode.com/ -->
 <g>
  <title>Layer 1</title>
  <path fill="none" stroke="#ffee00" stroke-width="5" fill-opacity="0" d="m72,366l39,-57l85,-3l50,54l3,49l-38,43l-76,7l-59,-37l-4,-56z" id="svg_110"/>
  <path fill="none" stroke="#ffee00" stroke-width="5" fill-opacity="0" d="m406,359l39,-57l85,-3l50,54l3,49l-38,43l-76,7l-59,-37l-4,-56z" id="svg_111"/>
  <line fill="none" stroke="#00bbff" stroke-width="5" fill-opacity="0" x1="152" y1="379" x2="242" y2="177" id="svg_112"/>
  <line fill="none" stroke="#00bbff" stroke-width="5" fill-opacity="0" x1="246" y1="174" x2="277" y2="313" id="svg_113"/>
  <line fill="none" stroke="#00bbff" stroke-width="5" fill-opacity="0" x1="152" y1="371" x2="478" y2="212" id="svg_118"/>
  <line fill="none" stroke="#00bbff" stroke-width="5" fill-opacity="0" x1="243" y1="173" x2="474" y2="173" id="svg_119"/>
  <line fill="none" stroke="#00bbff" stroke-width="5" fill-opacity="0" x1="468" y1="156" x2="498" y2="372" id="svg_120"/>
  <line fill="none" stroke="#00ff00" stroke-width="5" fill-opacity="0" x1="469" y1="155" x2="462" y2="112" id="svg_121"/>
  <line fill="none" stroke="#00ff00" stroke-width="5" fill-opacity="0" x1="461" y1="112" x2="405" y2="74" id="svg_122"/>
  <line fill="none" stroke="#00ff00" stroke-width="5" fill-opacity="0" x1="463" y1="110" x2="364" y2="124" id="svg_123"/>
  <line fill="none" stroke="#00ff00" stroke-width="5" fill-opacity="0" x1="245" y1="170" x2="230" y2="142" id="svg_124"/>
  <line fill="none" stroke="#00ff00" stroke-width="5" fill-opacity="0" x1="198" y1="140" x2="289" y2="139" id="svg_125"/>
 </g>
</svg>