<svg width="640" height="480" xmlns="http://www.w3.org/2000/svg">
 <!-- Created with SVG-edit - http://svg-edit.googlecode.com/ -->
 <g>
  <title>Layer 1</title>
  <path id="svg_151" d="m318,37l-57,15l-47,39l-19,61l0,209l22,22l31,1l-1,70l12,13l34,1l11,-18l3,-68l38,4l-2,61l14,24l33,0l14,-23l0,-66l34,-1l17,-25l-2,-207l-23,-68l-85,-46l-27,2z" fill-opacity="0" stroke-width="5" stroke="#36e236" fill="none"/>
  <line id="svg_152" y2="160" x2="146" y1="178" x1="129" fill-opacity="0" stroke-width="5" stroke="#36e236" fill="none"/>
  <line id="svg_153" y2="163" x2="494" y1="162" x1="146" fill-opacity="0" stroke-width="5" stroke="#36e236" fill="none"/>
  <line id="svg_154" y2="177" x2="519" y1="161" x1="494" fill-opacity="0" stroke-width="5" stroke="#36e236" fill="none"/>
  <line id="svg_155" y2="307" x2="523" y1="177" x1="519" fill-opacity="0" stroke-width="5" stroke="#36e236" fill="none"/>
  <line id="svg_156" y2="330" x2="516" y1="300" x1="522" fill-opacity="0" stroke-width="5" stroke="#36e236" fill="none"/>
  <line id="svg_157" y2="337" x2="491" y1="330" x1="516" fill-opacity="0" stroke-width="5" stroke="#36e236" fill="none"/>
  <line id="svg_158" y2="316" x2="464" y1="337" x1="491" fill-opacity="0" stroke-width="5" stroke="#36e236" fill="none"/>
  <line id="svg_159" y2="314" x2="455" y1="313" x1="465" fill-opacity="0" stroke-width="5" stroke="#36e236" fill="none"/>
  <line id="svg_160" y2="318" x2="128" y1="176" x1="129" fill-opacity="0" stroke-width="5" stroke="#36e236" fill="none"/>
  <line id="svg_161" y2="338" x2="151" y1="320" x1="128" fill-opacity="0" stroke-width="5" stroke="#36e236" fill="none"/>
  <line id="svg_162" y2="334" x2="178" y1="338" x1="150" fill-opacity="0" stroke-width="5" stroke="#36e236" fill="none"/>
  <line id="svg_163" y2="316" x2="185" y1="332" x1="178" fill-opacity="0" stroke-width="5" stroke="#36e236" fill="none"/>
  <line id="svg_164" y2="315" x2="198" y1="314" x1="184" fill-opacity="0" stroke-width="5" stroke="#36e236" fill="none"/>
  <line id="svg_165" y2="99" x2="254" y1="86" x1="264" fill-opacity="0" stroke-width="5" stroke="#36e236" fill="none"/>
  <line id="svg_166" y2="116" x2="269" y1="102" x1="254" fill-opacity="0" stroke-width="5" stroke="#36e236" fill="none"/>
  <line id="svg_167" y2="101" x2="288" y1="116" x1="269" fill-opacity="0" stroke-width="5" stroke="#36e236" fill="none"/>
  <line id="svg_168" y2="84" x2="265" y1="101" x1="288" fill-opacity="0" stroke-width="5" stroke="#36e236" fill="none"/>
  <line id="svg_169" y2="100" x2="358" y1="81" x1="377" fill-opacity="0" stroke-width="5" stroke="#36e236" fill="none"/>
  <line id="svg_170" y2="113" x2="383" y1="100" x1="358" fill-opacity="0" stroke-width="5" stroke="#36e236" fill="none"/>
  <line id="svg_171" y2="94" x2="399" y1="111" x1="383" fill-opacity="0" stroke-width="5" stroke="#36e236" fill="none"/>
  <line id="svg_172" y2="83" x2="376" y1="94" x1="399" fill-opacity="0" stroke-width="5" stroke="#36e236" fill="none"/>
  <line id="svg_173" y2="1" x2="241" y1="50" x1="267" fill-opacity="0" stroke-width="5" stroke="#36e236" fill="none"/>
  <line id="svg_174" y2="2" x2="427" y1="58" x1="394" fill-opacity="0" stroke-width="5" stroke="#36e236" fill="none"/>
 </g>
</svg>