<svg width="640" height="480" xmlns="http://www.w3.org/2000/svg">
 <!-- Created with SVG-edit - http://svg-edit.googlecode.com/ -->
 <g>
  <title>Layer 1</title>
  <line id="svg_1" y2="294" x2="174" y1="147" x1="172" stroke-width="5" stroke="#000000" fill="none"/>
  <line id="svg_2" y2="293" x2="318" y1="294" x1="174" stroke-width="5" stroke="#000000" fill="none"/>
  <line id="svg_5" y2="82" x2="249" y1="149" x1="171" stroke-width="5" stroke="#000000" fill="none"/>
  <line id="svg_6" y2="82" x2="404" y1="82" x1="249" stroke-width="5" stroke="#000000" fill="none"/>
  <line id="svg_7" y2="149" x2="311" y1="82" x1="404" stroke-width="5" stroke="#000000" fill="none"/>
  <line id="svg_8" y2="221" x2="410" y1="85" x1="405" stroke-width="5" stroke="#000000" fill="none"/>
  <line id="svg_9" y2="290" x2="320" y1="221" x1="410" stroke-width="5" stroke="#000000" fill="none"/>
  <line id="svg_10" y2="146" x2="251" y1="81" x1="249" stroke-width="5" stroke="#000000" fill="none"/>
  <line id="svg_11" y2="229" x2="253" y1="147" x1="251" stroke-width="5" stroke="#000000" fill="none"/>
  <line id="svg_14" y2="293" x2="175" y1="228" x1="254" stroke-width="5" stroke="#000000" fill="none"/>
  <line id="svg_15" y2="227" x2="315" y1="226" x1="255" stroke-linecap="null" stroke-linejoin="null" stroke-dasharray="null" stroke-width="5" stroke="#000000" fill="none"/>
  <line id="svg_16" y2="220" x2="408" y1="227" x1="315" stroke-linecap="null" stroke-linejoin="null" stroke-dasharray="null" stroke-width="5" stroke="#000000" fill="none"/>
  <line id="svg_17" y2="227" x2="315" y1="146" x1="310" stroke-linecap="null" stroke-linejoin="null" stroke-dasharray="null" stroke-width="5" stroke="#000000" fill="none"/>
  <line id="svg_18" y2="291" x2="318" y1="227" x1="315" stroke-linecap="null" stroke-linejoin="null" stroke-dasharray="null" stroke-width="5" stroke="#000000" fill="none"/>
  <line id="svg_19" y2="147" x2="251" y1="148" x1="172" stroke-linecap="null" stroke-linejoin="null" stroke-dasharray="null" stroke-width="5" stroke="#000000" fill="none"/>
  <line id="svg_20" y2="149" x2="309" y1="147" x1="251" stroke-linecap="null" stroke-linejoin="null" stroke-dasharray="null" stroke-width="5" stroke="#000000" fill="none"/>
 </g>
</svg>