<svg width="640" height="480" xmlns="http://www.w3.org/2000/svg">
 <!-- Created with SVG-edit - http://svg-edit.googlecode.com/ -->
 <g>
  <title>Layer 1</title>
  <path id="svg_6" d="m216.5,278.5c0,0 0.5,-61.5 0.5,-61.5c0,0 53.5,-30.5 53.5,-30.5" stroke-linecap="null" stroke-linejoin="null" stroke-dasharray="null" stroke-width="9" stroke="#5d00ff" fill="none"/>
  <path id="svg_8" d="m271,185.5c0,0 53,30.5 53,30.5c0,0 0.5,62 0.5,62" stroke-linecap="null" stroke-linejoin="null" stroke-dasharray="null" stroke-width="9" stroke="#f7f7f7" fill="none"/>
  <path id="svg_10" d="m323.5,278c0,0 -53.5,32 -53.5,32c0,0 -53.5,-31 -53.5,-31" stroke-linecap="null" stroke-linejoin="null" stroke-dasharray="null" stroke-width="10" stroke="#00cbff" fill="none"/>
  <path id="svg_12" d="m247,260.5c0,0 23,14.5 23,14.5c0,0 24,-14 24,-14" stroke-linecap="null" stroke-linejoin="null" stroke-dasharray="null" stroke-width="3" stroke="#00cbff" fill="none"/>
  <path id="svg_15" d="m241.5,229c0,0 28.5,-17.5 28.5,-17.5c0,0 29.5,17.5 29.5,17.5" stroke-linecap="null" stroke-linejoin="null" stroke-dasharray="null" stroke-width="5" stroke="#00cbff" fill="none"/>
  <path id="svg_16" d="m259,240c0,0 10.5,-8.5 10.5,-8.5c0,0 13.5,8 13.5,8" stroke-linecap="null" stroke-linejoin="null" stroke-dasharray="null" stroke-width="2" stroke="#00cbff" fill="none"/>
  <path id="svg_18" d="m262,253.5c0,0 8.5,5.5 8.5,5.5c0,0 8.5,-5 8.5,-5c0,0 -8,-5.5 -8,-5.5c0,0 -9,5 -9,5z" stroke-linecap="null" stroke-linejoin="null" stroke-dasharray="null" stroke-width="5" stroke="#00cbff" fill="none"/>
  <path id="svg_20" d="m300.5,230.5c0,0 0.5,34.5 0.5,34.5c0,0 -28,16.5 -28,16.5" stroke-linecap="null" stroke-linejoin="null" stroke-dasharray="null" stroke-width="5" stroke="#5d00ff" fill="none"/>
  <path id="svg_26" d="m250.5,257.5c0,0 -0.5,-23 -0.5,-23c0,0 18.5,-11 18.5,-11" stroke-linecap="null" stroke-linejoin="null" stroke-dasharray="null" stroke-width="2" stroke="#5d00ff" fill="none"/>
  <path id="svg_28" d="m284,242c0,0 0.5,13 0.5,13c0,0 -12,6.5 -12,6.5" stroke-linecap="null" stroke-linejoin="null" stroke-dasharray="null" stroke-width="2" stroke="#5d00ff" fill="none"/>
  <path id="svg_31" d="m240.5,231c0,0 -0.5,36 -0.5,36c0,0 28.5,14 28.5,14" stroke-linecap="null" stroke-linejoin="null" stroke-dasharray="null" stroke-width="5" stroke="#f7f7f7" fill="none"/>
  <path id="svg_34" d="m272.5,224.5c0,0 17.5,11 17.5,11c0,0 0,20.5 0,20.5" stroke-linecap="null" stroke-linejoin="null" stroke-dasharray="null" stroke-width="2" stroke="#f7f7f7" fill="none"/>
  <path id="svg_36" d="m256.5,241.5c0,0 -0.5,13.5 -0.5,13.5c0,0 11,6.5 11,6.5" stroke-linecap="null" stroke-linejoin="null" stroke-dasharray="null" stroke-width="2" stroke="#f7f7f7" fill="none"/>
  <path id="svg_38" d="m271,237c0,0 0,8 0,8c0,0 7.5,4 7.5,4c0,0 1,-7.5 1,-7.5c0,0 -8.5,-4.5 -8.5,-4.5z" stroke-linecap="null" stroke-linejoin="null" stroke-dasharray="null" stroke-width="4" stroke="#f7f7f7" fill="none"/>
  <path id="svg_39" d="m262,242c0,0 0,6.5 0,6.5c0,0 5.5,-3.5 5.5,-3.5c0,0 -1.5,-7 -1.5,-7c0,0 -4,4 -4,4z" stroke-linecap="null" stroke-linejoin="null" stroke-dasharray="null" stroke-width="3" stroke="#5d00ff" fill="none"/>
 </g>
</svg>