<svg width="640" height="480" xmlns="http://www.w3.org/2000/svg" xmlns:xlink="http://www.w3.org/1999/xlink">
 <!-- Created with SVG-edit - http://svg-edit.googlecode.com/ -->
 <g>
  <title>Layer 1</title>
  <image xlink:href="http://idg.bg/test/cwd/2012/3/21/39580-Kiva_Systems_logo.jpg" id="svg_4" height="348.08241" width="627.66667" y="114" x="6.66667"/>
  <path id="svg_6" d="m195.33333,237.33333c0,0 72.66667,-30 72.66667,-30c0,0 -47.33333,-22 -47.33333,-22c0,0 -68,22.66667 -68,22.66667c0,0 42.66666,29.33333 42.66666,29.33333z" stroke-linecap="null" stroke-linejoin="null" stroke-dasharray="null" stroke-width="5" stroke="#0015ff" fill="none"/>
  <path id="svg_7" d="m230,263.33334c0,0 71.33334,48.66666 71.33334,48.66666c0,0 74,-48.66666 74,-48.66666c0,0 -74,-39.33334 -74,-39.33334c0,0 -71.33334,39.33334 -71.33334,39.33334z" stroke-linecap="null" stroke-linejoin="null" stroke-dasharray="null" stroke-width="5" stroke="#0015ff" fill="none"/>
  <path id="svg_8" d="m336,207.33333c0,0 70,32 70,32c0,0 44.66666,-30.66666 44.66666,-30.66666c0,0 -68.66666,-24 -68.66666,-24c0,0 -46,22.66666 -46,22.66666z" stroke-linecap="null" stroke-linejoin="null" stroke-dasharray="null" stroke-width="5" stroke="#0015ff" fill="none"/>
  <path id="svg_9" d="m255.33333,173.33333c0,0 46.66667,19.33334 46.66667,19.33334c0,0 46.66666,-19.33334 46.66666,-19.33334c0,0 -46.66666,-16.66666 -46.66666,-16.66666c0,0 -46.66667,16.66666 -46.66667,16.66666z" stroke-linecap="null" stroke-linejoin="null" stroke-dasharray="null" stroke-width="5" stroke="#0015ff" fill="none"/>
  <path id="svg_10" d="m148,262c0,0 26.66667,25.33334 26.66667,25.33334c0,0 50.66666,-25.33334 50.66666,-25.33334c0,0 -30,-20 -30,-20c0,0 -47.33333,20 -47.33333,20z" stroke-linecap="null" stroke-linejoin="null" stroke-dasharray="null" stroke-width="5" stroke="#ff7f00" fill="none"/>
  <path id="svg_11" d="m379.33334,260.66666c0,0 48,26 48,26c0,0 30.66666,-25.33331 30.66666,-25.33331c0,0 -48.66666,-20.66667 -48.66666,-20.66667c0,0 -30,19.99998 -30,19.99998z" stroke-linecap="null" stroke-linejoin="null" stroke-dasharray="null" stroke-width="5" stroke="#ff7f00" fill="none"/>
  <path id="svg_12" d="m203.33333,173.33333c0,0 17.33334,8.66667 17.33334,8.66667c0,0 30,-8.66667 30,-8.66667c0,0 -19.33334,-10 -19.33334,-10c0,0 -28,10 -28,10z" stroke-linecap="null" stroke-linejoin="null" stroke-dasharray="null" stroke-width="5" stroke="#ff7f00" fill="none"/>
  <path id="svg_13" d="m273.33334,208.66667c0,0 26.66666,13.33333 26.66666,13.33333c0,0 32,-15.33333 32,-15.33333c0,0 -28.66666,-12 -28.66666,-12c0,0 -30,14 -30,14z" stroke-linecap="null" stroke-linejoin="null" stroke-dasharray="null" stroke-width="5" stroke="#ff7f00" fill="none"/>
  <path id="svg_14" d="m353.33334,173.33333c0,-0.66666 28.66666,9.33334 28.66666,9.33334c0,0 21.33334,-8.66667 21.33334,-8.66667c0,0 -30,-8.66667 -30,-8.66667c0,0 -20,8 -20,8z" stroke-linecap="null" stroke-linejoin="null" stroke-dasharray="null" stroke-width="5" stroke="#ff7f00" fill="none"/>
 </g>
</svg>