<svg width="640" height="480" xmlns="http://www.w3.org/2000/svg" xmlns:xlink="http://www.w3.org/1999/xlink">
 <!-- Created with SVG-edit - http://svg-edit.googlecode.com/ -->
 <g>
  <title>Layer 1</title>
  <image xlink:href="http://clipartist.org/SVG/Snollygoster/COLOURINGBOOK.ORG/black/C/celtic_inspired_knots_2_black_white_line_art_coloring_sheet_colouring_page_background_wall_paper_wallpaper.png" id="svg_1" height="357.63063" width="371" y="46.7027" x="143"/>
  <path id="svg_6" d="m253.33333,232c0,0 -0.66666,-53.33333 -0.66666,-54c0,-0.66667 -99.33334,0.66667 -99.33334,0c0,-0.66667 0,96 0,95.33334c0,-0.66666 99.33334,0.66666 99.33334,0c0,-0.66666 0.66666,-18.00002 0.66666,-18.00002" stroke-linecap="null" stroke-linejoin="null" stroke-dasharray="null" stroke-width="5" stroke="#000000" fill="none"/>
  <path id="svg_9" d="m216,286c0,0 0,53.33334 -0.66667,53.33334c-0.66666,0 100.66667,1.33331 100.66667,0.66666c0,-0.66666 0.66666,-32 0,-32.66666" stroke-linecap="null" stroke-linejoin="null" stroke-dasharray="null" stroke-width="5" stroke="#000000" fill="none"/>
  <path id="svg_11" d="m329.60001,297.20001c0,0 -51.20001,-0.80002 -51.20001,-0.80002c0,0 0.80002,31.60001 0.80002,31.60001" stroke-linecap="null" stroke-linejoin="null" stroke-dasharray="null" stroke-width="5" stroke="#000000" fill="none"/>
  <path id="svg_12" d="m278.79999,351.20001c0,0 0,42.79999 0,42.79999c0,0 98.40002,0.39999 98.40002,0.39999c0,0 1.19998,-96.79999 1.19998,-96.79999c0,0 -28,0 -28,0" stroke-linecap="null" stroke-linejoin="null" stroke-dasharray="null" stroke-width="5" stroke="#000000" fill="none"/>
  <path id="svg_13" d="m277.60001,230c0,0 0.79999,44 0.79999,44c0,0 26,0.79999 26,0.79999" stroke-linecap="null" stroke-linejoin="null" stroke-dasharray="null" stroke-width="5" stroke="#000000" fill="none"/>
  <path id="svg_14" d="m278.39999,207.2c0,0 -0.79999,-30.39999 -0.79999,-30.39999c0,0 26.39999,0.39999 26.39999,0.39999" stroke-linecap="null" stroke-linejoin="null" stroke-dasharray="null" stroke-width="5" stroke="#000000" fill="none"/>
  <path id="svg_15" d="m326,178c0,0 52.79999,1.2 52.79999,1.2c0,0 0.80002,53.60001 0.80002,53.60001" stroke-linecap="null" stroke-linejoin="null" stroke-dasharray="null" stroke-width="5" stroke="#000000" fill="none"/>
  <path id="svg_17" d="m326.39999,275.20001c0,0 52,-0.80002 52,-0.80002c0,0 1.60001,-20.39999 1.60001,-20.39999" stroke-linecap="null" stroke-linejoin="null" stroke-dasharray="null" stroke-width="5" stroke="#000000" fill="none"/>
  <path id="svg_18" d="m339.60001,262.79999c0,0 -0.39999,-19.19998 -0.39999,-19.19998c0,0 52.79999,-0.8 52.79999,-0.8" stroke-linecap="null" stroke-linejoin="null" stroke-dasharray="null" stroke-width="5" stroke="#000000" fill="none"/>
  <path id="svg_20" d="m415.60001,242.8c0,0 25.60001,0.39999 25.60001,0.39999c0,0 0.79999,96.00002 0.79999,96.00002c0,0 -51.60001,1.19998 -51.60001,1.19998" stroke-linecap="null" stroke-linejoin="null" stroke-dasharray="null" stroke-width="5" stroke="#000000" fill="none"/>
  <path id="svg_21" d="m340.39999,286.39999c0,0 1.20001,53.60001 1.20001,53.60001c0,0 25.60001,-0.39999 25.60001,-0.39999" stroke-linecap="null" stroke-linejoin="null" stroke-dasharray="null" stroke-width="5" stroke="#000000" fill="none"/>
  <path id="svg_22" d="m289.60001,242.39999c0,0 25.19998,0.8 25.19998,0.8c0,0 0.40002,43.59999 0.40002,43.59999" stroke-linecap="null" stroke-linejoin="null" stroke-dasharray="null" stroke-width="5" stroke="#000000" fill="none"/>
  <path id="svg_23" d="m216,262.79999c0,0 0,-19.19998 0,-19.19998c0,0 49.60001,0 49.60001,0" stroke-linecap="null" stroke-linejoin="null" stroke-dasharray="null" stroke-width="5" stroke="#000000" fill="none"/>
  <path id="svg_24" d="m214,188c0,0 1.60001,31.60001 1.60001,31.60001c0,0 25.59999,0.79999 25.59999,0.79999" stroke-linecap="null" stroke-linejoin="null" stroke-dasharray="null" stroke-width="5" stroke="#000000" fill="none"/>
  <path id="svg_25" d="m215.2,166c0,0 -0.39999,-44 -0.39999,-44c0,0 99.59999,0.4 99.59999,0.4c0,0 0.80002,18.8 0.80002,18.8" stroke-linecap="null" stroke-linejoin="null" stroke-dasharray="null" stroke-width="5" stroke="#000000" fill="none"/>
  <path id="svg_26" d="m316.79999,164.8c0,0 0,54 0,54c0,0 -52.39999,0 -52.39999,0" stroke-linecap="null" stroke-linejoin="null" stroke-dasharray="null" stroke-width="5" stroke="#000000" fill="none"/>
  <path id="svg_27" d="m277.60001,133.2c0,0 1.19998,18.8 1.19998,18.8c0,0 50.40002,1.2 50.40002,1.2" stroke-linecap="null" stroke-linejoin="null" stroke-dasharray="null" stroke-width="5" stroke="#000000" fill="none"/>
  <path id="svg_28" d="m278.79999,111.2c0,0 0.40002,-56.8 0.40002,-56.8c0,0 97.59998,1.2 97.59998,1.2c0,0 1.20001,98.8 1.20001,98.8c0,0 -26.79999,-2 -26.79999,-2" stroke-linecap="null" stroke-linejoin="null" stroke-dasharray="null" stroke-width="5" stroke="#000000" fill="none"/>
  <path id="svg_29" d="m340.79999,166c0,0 0.80002,-43.6 0.80002,-43.6c0,0 26.79999,0 26.79999,0" stroke-linecap="null" stroke-linejoin="null" stroke-dasharray="null" stroke-width="5" stroke="#000000" fill="none"/>
  <path id="svg_31" d="m390,123.2c0,0 50.39999,0.8 50.39999,0.8c0,0 1.20001,96.39999 1.20001,96.39999c0,0 -50,-0.79999 -50,-0.79999" stroke-linecap="null" stroke-linejoin="null" stroke-dasharray="null" stroke-width="5" stroke="#000000" fill="none"/>
  <path id="svg_32" d="m341.20001,188.8c0,0 0,30.40263 0,30.39999c0,-0.00264 26,-0.39999 26,-0.39999" stroke-linecap="null" stroke-linejoin="null" stroke-dasharray="null" stroke-width="5" stroke="#000000" fill="none"/>
  <path id="svg_33" d="m404,207.2c0,0 -1.20001,-30 -1.20001,-30c0,0 26.80002,0 26.80002,-0.39999" stroke-linecap="null" stroke-linejoin="null" stroke-dasharray="null" stroke-width="5" stroke="#000000" fill="none"/>
  <path id="svg_34" d="m454,177.2c0,0 50.39999,1.60001 50.39999,1.60001c0,0 0.39999,95.99998 0.39999,95.99998c0,0 -50.39999,1.20001 -50.39999,1.20001" stroke-linecap="null" stroke-linejoin="null" stroke-dasharray="null" stroke-width="5" stroke="#000000" fill="none"/>
  <path id="svg_35" d="m403.20001,231.60001c0,0 -0.40002,42.39999 -0.40002,42.39999c0,0 27.60001,1.20001 27.60001,1.20001" stroke-linecap="null" stroke-linejoin="null" stroke-dasharray="null" stroke-width="5" stroke="#000000" fill="none"/>
 </g>
</svg>