<svg width="640" height="480" xmlns="http://www.w3.org/2000/svg" xmlns:xlink="http://www.w3.org/1999/xlink">
 <!-- Created with SVG-edit - http://svg-edit.googlecode.com/ -->
 <g>
  <title>Layer 1</title>
  <image stroke="#000000" xlink:href="http://eddycrosby.com/blog/wp-content/uploads/2009/08/sketchbook_leia02.jpg" id="svg_1" height="842.66677" width="1168.6667" y="20.66657" x="-537.49999"/>
  <path id="svg_2" d="m272.66666,188.66667l3.33334,4.66666l93.33334,-11.33333l11.33331,-47.33333l-2.66666,-17.33333l-14,-6l-4.66666,-17.33334l-10,-24l-27.33334,-14.66667l-32,-3.33333l-26.66666,9.33333l-20.00002,14.00002l-10,22l-18,10l-10,18l-2.66666,23.33333l6.66666,17.33333l12,16l20,13.33333l16.66667,-2l8,-4" stroke-width="5" stroke="#000000" fill="none"/>
  <path id="svg_3" d="m270,186l10,-10l6,-18l-4,-24l-10,-18l-14.66666,-12.66666l-16.00002,-6" stroke-linecap="null" stroke-linejoin="null" stroke-dasharray="null" stroke-width="5" stroke="#000000" fill="none"/>
  <path id="svg_4" d="m240.66667,98l31.33333,11.33334l10,-8l9.33334,-12l6.66666,-14l2,-13.33334l-0.66666,-6.66667" stroke-linecap="null" stroke-linejoin="null" stroke-dasharray="null" stroke-width="5" stroke="#000000" fill="none"/>
  <path id="svg_5" d="m305.33334,56.66667l12.66666,12.66667l15.33334,6l17.33331,4" stroke-linecap="null" stroke-linejoin="null" stroke-dasharray="null" stroke-width="5" stroke="#000000" fill="none"/>
  <path id="svg_6" d="m208,125.33334l15.33333,-4l16,6l10,11.33333l4,15.33333l-6,14l-8,10l-10.66666,5.33333" stroke-linecap="null" stroke-linejoin="null" stroke-dasharray="null" stroke-width="5" stroke="#000000" fill="none"/>
  <path id="svg_7" d="m332,151.33333l21.33334,-10.66666l15.33331,1.33333l-2.66666,10.66667l-8.66666,11.33333l-14,-5.33333l-11.33334,-7.33334z" stroke-linecap="null" stroke-linejoin="null" stroke-dasharray="null" stroke-width="5" stroke="#000000" fill="none"/>
  <path id="svg_8" d="m286.66666,118.66666l5.33334,-15.33331l24,-4" stroke-linecap="null" stroke-linejoin="null" stroke-dasharray="null" stroke-width="5" stroke="#000000" fill="none"/>
  <path id="svg_9" d="m339.33334,91.33334l14.66666,-8" stroke-linecap="null" stroke-linejoin="null" stroke-dasharray="null" stroke-width="5" stroke="#000000" fill="none"/>
  <path id="svg_10" d="m290,128l14,6l16,-6.66666l-10.66666,-14l-19.33334,14.66666z" stroke-linecap="null" stroke-linejoin="null" stroke-dasharray="null" stroke-width="5" stroke="#000000" fill="none"/>
  <line id="svg_12" y2="120.66667" x2="346.66667" y1="110.66667" x1="342" stroke-linecap="null" stroke-linejoin="null" stroke-dasharray="null" stroke-width="5" stroke="#000000" fill="none"/>
  <line id="svg_13" y2="114.66667" x2="364" y1="118.66667" x1="346.66667" stroke-linecap="null" stroke-linejoin="null" stroke-dasharray="null" stroke-width="5" stroke="#000000" fill="none"/>
  <line id="svg_14" y2="100.66667" x2="347.33333" y1="109.33333" x1="342.66667" stroke-linecap="null" stroke-linejoin="null" stroke-dasharray="null" stroke-width="5" stroke="#000000" fill="none"/>
  <line id="svg_15" y2="101.33333" x2="361.33333" y1="100.66667" x1="347.33333" stroke-linecap="null" stroke-linejoin="null" stroke-dasharray="null" stroke-width="5" stroke="#000000" fill="none"/>
 </g>
</svg>